<?xml version="1.0" encoding="UTF-8"?>
<svg id="Layer_2" data-name="Layer 2" xmlns="http://www.w3.org/2000/svg" viewBox="0 0 785.42 169.5">
  <defs>
    <style>
      .cls-1 {
        fill: #ed1c24;
        stroke-width: 0px;
      }
    </style>
  </defs>
  <g id="Layer_1-2" data-name="Layer 1">
    <g>
      <path class="cls-1" d="M78.41,9.49c-2.08-7.18-6.02-9.49-11.35-9.49-6.25,0-9.26,2.55-11.58,10.19L12.19,156.76H0v9.03h48.08v-9.03h-24.54l13.43-46.54h48.4l14.13,46.54h-15.98v9.03h55.8v-9.03h-14.59L78.41,9.49ZM40.21,98.18L60.12,28.48l21.53,69.7h-41.45Z"/>
      <path class="cls-1" d="M196.19,12.73h22l-35.2,126.66L145.71,12.73h15.05V3.7h-64.81v9.03h24.52l44.23,147.96c1.85,6.02,6.25,8.8,11.58,8.8,6.02,0,9.73-2.55,12.04-10.65L229.54,12.73h12.73V3.7h-46.08v9.03Z"/>
      <path class="cls-1" d="M461.11,12.73h34.96v122.72L420.35,3.7l-38.66-.13v9.03l23.61.13v144.03l-22.61-.13v9.03l63.36.13v-9.03h-29.64V43.3l68.54,119.71c2.55,4.4,6.25,6.48,11.11,6.48,6.02,0,11.11-4.63,11.11-11.35V12.73h19.29V3.7h-65.37v9.03Z"/>
      <polygon class="cls-1" points="539.66 12.73 575.57 12.73 575.57 156.76 539.66 156.76 539.66 165.79 634.4 165.79 634.4 156.76 598.26 156.76 598.26 12.73 634.4 12.73 634.4 3.7 539.66 3.7 539.66 12.73"/>
      <path class="cls-1" d="M775.23,118.32v26.4c0,7.18-4.17,11.58-10.19,11.58s-9.26-4.4-9.26-10.19c-.23-22.46,2.09-43.38-21.38-57.66l-2.26-1.93c26.47-4.6,43.47-20.98,43.47-41.61,0-22.69-22.92-41.22-58.35-41.22h-71.32v9.03h20.38v144.03h-20.38v9.03h66.22v-9.03h-23.16v-68.77h19.22c12.04,0,23.47,10.42,23.47,29.17v25.93c0,16.67,10.88,26.4,27.09,26.4,17.37.23,26.63-12.27,26.63-33.34v-17.83h-10.19ZM721.43,77.8h-6.48c-16.67,0-26.4-9.96-26.4-24.54v-13.43c0-16.67,10.19-26.4,25.7-26.4h7.18c16.67,0,26.4,10.19,26.4,25.7v14.13c0,14.59-9.73,24.54-26.4,24.54Z"/>
      <path class="cls-1" d="M359.35,129.44c-.23,16.67-9.96,26.63-25.47,26.63h-17.83c-16.67-.69-26.4-10.42-26.4-25.93v-41.91h59.74v-12.04h-59.74v-37.28c0-15.51,9.72-25.47,26.4-25.47h15.98c16.67,0,26.4,9.96,26.4,25.47v21.3h10.19V3.7h-113.34v9.03h12.62v144.03h-22.61v9.03h124.49v-57.89h-10.19l-.23,21.53Z"/>
    </g>
  </g>
</svg>