<?xml version="1.0" encoding="UTF-8"?>
<svg xmlns="http://www.w3.org/2000/svg" viewBox="0 0 87.16 50.4">
  <defs>
    <style>
      .cls-1 {
        isolation: isolate;
      }

      .cls-2 {
        mix-blend-mode: darken;
      }
    </style>
  </defs>
  <g class="cls-1">
    <g id="Layer_2">
      <g id="Layer_1-2" data-name="Layer_1">
        <g>
          <path class="cls-2" d="M72.62,19.74c0-1.67-.92-2.63-2.72-2.63h-6.37v6.89h6.5c1.71,0,2.59-.92,2.59-2.56v-1.71Z"/>
          <polygon class="cls-2" points="15.09 28.48 20.57 28.48 17.82 19.09 15.09 28.48"/>
          <path class="cls-2" d="M43.58,0C19.51,0,0,11.28,0,25.2s19.51,25.2,43.58,25.2,43.58-11.28,43.58-25.2S67.65,0,43.58,0ZM22.67,35.79l-1.08-3.77h-7.55l-1.08,3.77h-3.18l6.93-22.32h2.26l6.89,22.32h-3.18ZM32.72,35.79h-2.26l-6.93-22.32h3.28l4.76,16.67,4.76-16.67h3.28l-6.89,22.32ZM57.15,35.79h-2.1l-9.71-16.67v16.67h-3.15V13.48h3.18l8.6,14.7v-14.7h3.18v22.32ZM73.25,35.79l-4.04-8.34h-5.68v8.34h-3.15V13.48h9.98c3.41,0,5.42,1.94,5.42,5.28v3.48c0,2.43-1.28,4.1-3.41,4.69l4.27,8.86h-3.38Z"/>
        </g>
      </g>
    </g>
  </g>
</svg>