<?xml version="1.0" encoding="UTF-8"?>
<svg id="Layer_2" xmlns="http://www.w3.org/2000/svg" viewBox="0 0 50.4 50.4">
  <g id="Layer_1-2" data-name="Layer_1">
    <g>
      <path d="M45.22,0H5.18C2.33,0,0,2.33,0,5.18v40.04c0,2.86,2.33,5.18,5.18,5.18h40.04c2.86,0,5.18-2.33,5.18-5.18V5.18c0-2.86-2.33-5.18-5.18-5.18ZM5.18,2.05h40.04c1.73,0,3.13,1.41,3.13,3.13v18.99H2.05V5.18c0-1.73,1.41-3.13,3.13-3.13ZM45.22,48.35H5.18c-1.73,0-3.13-1.41-3.13-3.13v-18.99h46.3v18.99c0,1.73-1.41,3.13-3.13,3.13Z"/>
      <path d="M10.66,31.14h-5.01v12.16h1.72v-4.04h3.29c2.2,0,3.51-1.34,3.51-3.4v-1.29c0-2.11-1.27-3.43-3.51-3.43ZM12.43,35.69c0,1.04-.68,1.63-1.86,1.63h-3.2v-4.17h3.2c1.18,0,1.86.61,1.86,1.63v.91Z"/>
      <path d="M24.17,35.92v-1.9c0-1.82-1.09-2.88-2.95-2.88h-5.44v12.16h1.72v-4.54h3.09l2.2,4.54h1.84l-2.33-4.83c1.16-.32,1.86-1.23,1.86-2.56ZM21.04,36.89h-3.54v-3.76h3.47c.98,0,1.48.52,1.48,1.43v.93c0,.89-.48,1.4-1.41,1.4Z"/>
      <path d="M31.22,31.11h-1.84c-2.2,0-3.52,1.32-3.52,3.51v5.22c0,2.18,1.32,3.51,3.52,3.51h1.84c2.2,0,3.51-1.32,3.51-3.51v-1.32h-1.72v1c0,1.16-.62,1.79-1.75,1.79h-1.91c-1.14,0-1.77-.63-1.77-1.79v-4.56c0-1.18.63-1.81,1.77-1.81h1.91c1.13,0,1.75.63,1.75,1.81v.72h1.72v-1.06c0-2.18-1.31-3.51-3.51-3.51Z"/>
      <path d="M44.78,35.92v-1.9c0-1.82-1.09-2.88-2.95-2.88h-5.44v12.16h1.72v-4.54h3.09l2.2,4.54h1.84l-2.32-4.83c1.16-.32,1.86-1.23,1.86-2.56ZM41.65,36.89h-3.54v-3.76h3.47c.98,0,1.48.52,1.48,1.43v.93c0,.89-.48,1.4-1.41,1.4Z"/>
      <path d="M14.21,16.11v-5.15c0-2.18-1.32-3.51-3.52-3.51h-5.03v12.16h5.03c2.2,0,3.52-1.32,3.52-3.51ZM7.38,9.51h3.34c1.13,0,1.75.63,1.75,1.81v4.45c0,1.16-.63,1.79-1.75,1.79h-3.34v-8.05Z"/>
      <path d="M19.4,19.65h1.63c2.15,0,3.38-1.22,3.38-3.29v-.55c0-2.09-1.2-3.33-3.38-3.33h-2.02c-1,0-1.54-.52-1.54-1.47v-.23c0-.91.54-1.41,1.54-1.41h2.2c.96,0,1.52.52,1.52,1.38v.21h1.65v-.47c0-1.91-1.22-3.08-3.27-3.08h-2.04c-2.04,0-3.24,1.18-3.24,3.22v.43c0,2.02,1.2,3.22,3.24,3.22h2.11c1,0,1.59.55,1.59,1.5v.43c0,.93-.59,1.47-1.59,1.47h-1.99c-1.07,0-1.72-.57-1.72-1.54v-.23h-1.65v.45c0,2.09,1.2,3.29,3.58,3.29Z"/>
      <path d="M29.5,19.65h1.81c2.24,0,3.56-1.32,3.56-3.54v-3.06h-4.45v1.7h2.74v1.07c0,1.16-.63,1.79-1.77,1.79h-1.91c-1.14,0-1.77-.63-1.77-1.79v-4.56c0-1.18.62-1.81,1.77-1.81h1.79c1.2,0,1.9.63,1.9,1.79v.23h1.72v-.55c0-2.18-1.43-3.51-3.65-3.51h-1.72c-2.2,0-3.52,1.32-3.52,3.51v5.22c0,2.18,1.32,3.51,3.52,3.51Z"/>
      <polygon points="38.32 10.53 43.61 19.61 44.76 19.61 44.76 7.45 43.02 7.45 43.02 15.47 38.34 7.45 36.6 7.45 36.6 19.61 38.32 19.61 38.32 10.53"/>
    </g>
  </g>
</svg>