<?xml version="1.0" encoding="UTF-8"?>
<svg id="Layer_2" xmlns="http://www.w3.org/2000/svg" viewBox="0 0 37.85 50.4">
  <g id="Layer_1-2" data-name="Layer_1">
    <g>
      <rect x="15.91" y="28.46" width="6.03" height="37.85" rx="1.2" ry="1.2" transform="translate(66.31 28.46) rotate(90)"/>
      <g>
        <g>
          <path d="M9.47.61l6.26,11.16c.45.8-.13,1.79-1.05,1.79H2.17c-.92,0-1.5-.99-1.05-1.79L7.38.61c.46-.82,1.64-.82,2.09,0Z"/>
          <rect x="5.41" y="11.4" width="6.03" height="28.62" rx="1.2" ry="1.2"/>
        </g>
        <g>
          <path d="M30.47.61l6.26,11.16c.45.8-.13,1.79-1.05,1.79h-12.51c-.92,0-1.5-.99-1.05-1.79L28.38.61c.46-.82,1.64-.82,2.09,0Z"/>
          <rect x="26.41" y="11.4" width="6.03" height="28.62" rx="1.2" ry="1.2"/>
        </g>
      </g>
    </g>
  </g>
</svg>